<svg display='none' xmlns="http://www.w3.org/2000/svg">

<symbol id='trello' viewBox="0 0 24 22">
<path d="M18.75 3H5.25C4.007 3 3 4.007 3 5.25V18.75C3 19.992 4.007 21 5.25 21H18.75C19.992 21 21 19.992 21 18.75V5.25C21 4.007 19.992 3 18.75 3ZM10.83 16.635C10.83 17.231 10.346 17.715 9.75 17.715H6.42C5.823 17.715 5.34 17.231 5.34 16.635V6.42C5.34 5.823 5.823 5.34 6.42 5.34H9.75C10.346 5.34 10.83 5.823 10.83 6.42V16.635ZM18.66 12.135C18.66 12.731 18.177 13.215 17.58 13.215H14.25C13.654 13.215 13.17 12.731 13.17 12.135V6.42C13.17 5.823 13.654 5.34 14.25 5.34H17.58C18.177 5.34 18.66 5.823 18.66 6.42V12.135V12.135Z" />
</symbol>
<symbol id='inprogress' viewBox="0 0 24 24"><path d="M11.7,2c-0.1,0-0.1,0-0.2,0c0,0,0,0-0.1,0v0c-0.2,0-0.3,0-0.5,0l0.2,2c0.4,0,0.9,0,1.3,0c4,0.3,7.3,3.5,7.5,7.6
	c0.2,4.4-3.2,8.2-7.6,8.4c0,0-0.1,0-0.2,0c-0.3,0-0.7,0-1,0L11,22c0.4,0,0.8,0,1.3,0c0.1,0,0.3,0,0.4,0v0c5.4-0.4,9.5-5,9.3-10.4
	c-0.2-5.1-4.3-9.1-9.3-9.5v0c0,0,0,0,0,0c-0.2,0-0.3,0-0.5,0C12,2,11.9,2,11.7,2z M8.2,2.7C7.7,3,7.2,3.2,6.7,3.5l1.1,1.7
	C8.1,5,8.5,4.8,8.9,4.6L8.2,2.7z M4.5,5.4c-0.4,0.4-0.7,0.9-1,1.3l1.7,1C5.4,7.4,5.7,7.1,6,6.7L4.5,5.4z M15.4,8.4l-4.6,5.2
	l-2.7-2.1L7,13.2l4.2,3.2l5.8-6.6L15.4,8.4z M2.4,9c-0.2,0.5-0.3,1.1-0.3,1.6l2,0.3c0.1-0.4,0.1-0.9,0.3-1.3L2.4,9z M4.1,13l-2,0.2
	c0,0.1,0,0.2,0,0.3c0.1,0.4,0.2,0.9,0.3,1.3l1.9-0.6c-0.1-0.3-0.2-0.7-0.2-1.1L4.1,13z M5.2,16.2l-1.7,1.1c0.3,0.5,0.6,0.9,1,1.3
	L6,17.3C5.7,16.9,5.4,16.6,5.2,16.2z M7.8,18.8l-1.1,1.7c0.5,0.3,1,0.5,1.5,0.8l0.8-1.8C8.5,19.2,8.1,19,7.8,18.8z"/>
</symbol>
<symbol id='done' viewBox="0 0 96 96">
<path d="m65.46,39.09l-3.006-3.006c-.555-.555-1.452-.555-2.004,0l-18.042,18.039-8.577-8.646c-.558-.555-1.452-.555-2.01,0l-3.006,3.009c-.555,.555-.555,1.452 0,2.004l12.579,12.669c.555,.552 1.452,.552 2.004,0l22.062-22.062c.558-.555 .558-1.452 0-2.007zm-17.46-30.09c-21.54,0-39,17.46-39,39s17.46,39 39,39 39-17.46 39-39-17.46-39-39-39zm0,69c-16.566,0-30-13.434-30-30 0-16.569 13.434-30 30-30 16.569,0 30,13.431 30,30 0,16.566-13.431,30-30,30z"/>
</symbol>
<symbol id='todo' viewBox="0 0 24 24">
<path d="M2,11H8a1,1,0,0,0,1-1V4A1,1,0,0,0,8,3H2A1,1,0,0,0,1,4v6A1,1,0,0,0,2,11ZM3,5H7V9H3ZM8,21a1,1,0,0,0,1-1V14a1,1,0,0,0-1-1H2a1,1,0,0,0-1,1v6a1,1,0,0,0,1,1ZM3,15H7v4H3ZM23,7a1,1,0,0,1-1,1H12a1,1,0,0,1,0-2H22A1,1,0,0,1,23,7Zm0,10a1,1,0,0,1-1,1H12a1,1,0,0,1,0-2H22A1,1,0,0,1,23,17Z"/>
</symbol>
</svg>